<svg id="svg" xmlns="http://www.w3.org/2000/svg" xmlns:xlink="http://www.w3.org/1999/xlink" width="400" height="400" viewBox="0, 0, 400,400"><g id="svgg"><path id="path0" d="M62.612 78.125 C 62.673 86.719,90.798 129.921,125.112 174.130 C 197.498 267.390,209.388 325.000,156.250 325.000 C 139.063 325.000,125.000 330.625,125.000 337.500 C 125.000 344.444,158.333 350.000,200.000 350.000 C 241.667 350.000,275.000 344.444,275.000 337.500 C 275.000 330.625,260.938 325.000,243.750 325.000 C 190.612 325.000,202.502 267.390,274.888 174.130 C 361.871 62.063,362.165 62.500,200.000 62.500 C 98.274 62.500,62.529 66.565,62.612 78.125 M281.250 100.000 C 271.184 116.287,128.816 116.287,118.750 100.000 C 113.876 92.114,143.866 87.500,200.000 87.500 C 256.134 87.500,286.124 92.114,281.250 100.000 M228.709 168.357 C 216.356 185.329,203.437 199.214,200.000 199.214 C 196.563 199.214,183.644 185.329,171.291 168.357 L 148.833 137.500 200.000 137.500 L 251.167 137.500 228.709 168.357 " stroke="none" fill="#000000" fill-rule="evenodd"></path></g></svg>